<?xml version="1.0" standalone="no"?>
<!DOCTYPE svg PUBLIC "-//W3C//DTD SVG 20010904//EN"
 "http://www.w3.org/TR/2001/REC-SVG-20010904/DTD/svg10.dtd">
<svg version="1.0" xmlns="http://www.w3.org/2000/svg"
 width="819.000000pt" height="1024.000000pt" viewBox="0 0 819.000000 1024.000000"
 preserveAspectRatio="xMidYMid meet">

<g transform="translate(0.000000,1024.000000) scale(0.100000,-0.100000)"
fill="#000000" stroke="none">
<path d="M300 10224 c-139 -38 -249 -149 -285 -290 -13 -54 -15 -560 -13
-4839 l3 -4780 22 -55 c43 -105 142 -201 245 -237 51 -17 192 -18 3823 -18
3631 0 3772 1 3823 18 106 37 212 143 249 249 17 51 18 223 18 4848 0 4625 -1
4797 -18 4848 -36 103 -132 202 -237 245 l-55 22 -3760 2 c-3286 2 -3767 0
-3815 -13z m7622 -102 c76 -37 120 -82 157 -162 l26 -55 0 -4785 0 -4785 -26
-55 c-37 -80 -81 -125 -157 -162 l-67 -33 -3760 0 -3760 0 -55 26 c-80 37
-125 81 -162 157 l-33 67 0 4785 0 4785 26 55 c47 99 116 159 218 186 36 10
844 12 3786 11 l3740 -2 67 -33z"/>
<path d="M288 9408 c-108 -57 -118 -64 -118 -90 0 -33 -4 -32 50 -13 87 31 80
59 80 -324 0 -340 0 -340 -22 -355 -12 -9 -39 -16 -60 -16 -36 0 -38 -2 -38
-30 l0 -30 200 0 200 0 0 30 c0 29 -2 30 -43 30 -81 0 -77 -27 -79 440 l-3
415 -25 3 c-15 1 -72 -23 -142 -60z"/>
<path d="M960 9461 c-110 -36 -184 -130 -225 -286 -23 -88 -21 -260 4 -358 52
-201 159 -298 315 -285 148 12 243 128 283 343 25 135 1 321 -54 429 -23 45
-93 116 -137 138 -44 22 -145 33 -186 19z m140 -99 c18 -18 37 -57 52 -103 21
-67 23 -93 23 -264 0 -217 -14 -288 -69 -351 -38 -44 -89 -50 -133 -18 -116
86 -125 614 -12 735 38 41 98 41 139 1z"/>
<path d="M2271 9188 c-85 -9 -177 -47 -234 -97 -48 -43 -95 -140 -108 -223
-14 -92 8 -218 55 -313 19 -38 34 -70 33 -71 -1 -1 -31 4 -67 12 -182 38 -375
-5 -462 -105 -75 -85 -110 -226 -90 -359 24 -154 99 -260 228 -323 67 -33 72
-34 194 -34 123 0 126 1 200 36 118 56 201 155 225 267 5 23 12 32 27 32 18 0
19 -4 13 -52 -29 -222 -82 -433 -136 -540 -16 -32 -29 -60 -29 -63 0 -3 106
-5 235 -5 129 0 235 3 235 8 0 4 -9 21 -20 39 -46 76 -102 277 -135 483 -19
122 -19 130 4 130 14 0 22 -12 30 -46 34 -133 125 -228 262 -274 52 -18 81
-21 159 -18 84 3 104 7 161 35 163 81 244 262 219 488 -19 159 -72 248 -184
305 -63 32 -74 35 -160 34 -79 -1 -161 -15 -217 -38 -11 -5 -7 11 16 58 40 83
57 158 57 252 -1 271 -197 417 -511 382z"/>
<path d="M5750 9189 c-145 -17 -258 -94 -310 -211 -55 -124 -37 -324 40 -455
11 -20 20 -37 18 -38 -2 -2 -34 4 -73 12 -96 20 -241 13 -318 -16 -31 -13 -79
-40 -106 -61 -95 -75 -145 -233 -122 -387 22 -150 100 -262 228 -325 61 -30
78 -33 173 -36 88 -3 116 0 169 18 135 45 235 143 268 263 12 43 21 57 35 57
22 0 22 -8 3 -130 -33 -206 -89 -407 -135 -483 -11 -18 -20 -35 -20 -39 0 -5
106 -8 235 -8 129 0 235 2 235 5 0 3 -13 31 -29 63 -53 106 -113 342 -136 535
-6 52 -5 57 13 57 15 0 22 -11 32 -47 28 -114 103 -202 218 -256 58 -27 80
-32 167 -35 84 -3 109 0 158 18 191 72 290 269 257 510 -27 200 -111 301 -275
331 -77 14 -205 -2 -287 -36 -15 -6 -14 0 7 37 36 64 53 118 65 205 17 129
-15 252 -89 336 -44 49 -155 104 -228 112 -32 3 -71 7 -88 9 -16 2 -64 0 -105
-5z"/>
<path d="M804 8459 c-37 -10 -91 -67 -100 -105 -7 -27 -1 -120 10 -144 5 -12
-4 -15 -52 -16 -95 -2 -153 -45 -171 -127 -34 -148 90 -266 234 -222 26 7 61
26 76 41 19 18 29 23 29 13 0 -25 -26 -113 -43 -146 -10 -18 -17 -34 -17 -38
0 -3 52 -5 115 -5 l114 0 -19 33 c-15 27 -50 138 -50 162 0 4 16 -7 35 -24
124 -108 295 -22 295 149 -1 83 -28 136 -86 161 -35 16 -57 19 -91 14 -43 -6
-44 -6 -33 15 20 37 16 122 -6 165 -37 72 -140 103 -240 74z"/>
<path d="M3972 8109 c-283 -55 -390 -348 -237 -649 l27 -53 -34 7 c-107 22
-176 26 -252 16 -99 -14 -170 -45 -230 -100 -59 -55 -93 -126 -108 -226 -21
-142 19 -284 107 -382 124 -137 347 -171 528 -80 105 52 175 135 208 246 8 30
18 42 31 42 10 0 18 -6 18 -12 0 -34 -44 -275 -66 -362 -25 -100 -78 -241 -95
-252 -32 -19 12 -24 227 -24 130 0 234 3 232 8 -72 138 -107 255 -143 465 -30
177 -30 177 -7 177 14 0 23 -15 36 -60 93 -309 539 -382 720 -117 67 97 94
228 77 364 -15 118 -45 189 -105 249 -91 92 -227 117 -391 74 -38 -10 -71 -17
-73 -15 -2 2 6 22 18 46 72 141 84 308 31 433 -44 101 -153 182 -281 206 -62
12 -177 11 -238 -1z"/>
<path d="M2206 7029 c-59 -14 -153 -68 -188 -108 -114 -130 -124 -358 -23
-540 14 -24 24 -45 22 -47 -2 -2 -21 2 -43 8 -21 7 -95 12 -164 12 -145 0
-205 -18 -289 -84 -130 -103 -167 -344 -82 -527 56 -119 173 -202 313 -222
220 -31 427 89 484 279 13 45 22 60 36 60 22 0 22 4 3 -121 -32 -211 -75 -370
-129 -476 -14 -29 -26 -55 -26 -58 0 -3 106 -5 235 -5 129 0 235 3 235 8 0 4
-8 21 -18 37 -49 81 -99 255 -132 460 -25 149 -25 155 -1 155 14 0 22 -12 30
-46 62 -246 350 -371 586 -255 159 79 240 262 215 486 -18 158 -72 248 -183
304 -62 32 -74 35 -160 35 -81 0 -149 -12 -220 -40 -8 -3 -2 20 18 60 40 83
57 158 57 252 -1 194 -97 323 -277 370 -56 15 -239 17 -299 3z"/>
<path d="M5680 7026 c-154 -45 -247 -151 -269 -307 -15 -109 14 -253 69 -346
11 -20 20 -37 18 -38 -2 -2 -32 3 -68 11 -178 37 -354 0 -450 -96 -149 -149
-140 -458 18 -616 217 -217 639 -118 719 169 12 43 21 57 35 57 22 0 22 -8 3
-130 -33 -206 -89 -407 -135 -483 -11 -18 -20 -35 -20 -39 0 -5 106 -8 235 -8
129 0 235 2 235 5 0 3 -13 31 -29 63 -53 106 -113 342 -136 535 -6 52 -5 57
13 57 15 0 22 -11 31 -46 45 -180 203 -296 401 -296 271 0 443 229 400 532
-23 161 -73 243 -182 299 -61 31 -75 34 -155 35 -77 0 -162 -15 -225 -39 -15
-6 -14 0 7 37 36 64 53 118 65 205 25 191 -50 342 -208 416 -63 30 -75 32
-197 34 -85 1 -146 -2 -175 -11z"/>
<path d="M2120 4896 c0 -2 15 -36 34 -77 47 -101 81 -226 111 -402 30 -178 30
-177 6 -177 -14 0 -21 10 -26 33 -20 90 -107 203 -193 250 -108 59 -262 74
-373 37 -78 -27 -124 -56 -177 -114 -114 -124 -143 -349 -66 -512 32 -67 108
-136 182 -165 76 -29 249 -37 340 -16 34 8 62 12 62 10 0 -2 -11 -23 -24 -46
-81 -140 -93 -334 -30 -462 69 -137 190 -199 389 -199 125 0 212 23 284 75
132 95 180 295 116 485 -15 43 -35 93 -46 111 l-19 31 62 -21 c46 -15 91 -20
168 -21 96 -1 110 1 162 27 109 54 168 149 187 306 25 195 -39 375 -163 460
-143 99 -360 92 -501 -16 -58 -44 -119 -136 -135 -203 -9 -39 -16 -50 -32 -50
-19 0 -20 4 -13 58 23 193 83 429 136 534 16 32 29 60 29 63 0 3 -106 5 -235
5 -129 0 -235 -2 -235 -4z"/>
<path d="M5600 4895 c0 -3 13 -31 29 -63 53 -105 113 -341 136 -534 7 -54 6
-58 -13 -58 -15 0 -22 9 -27 33 -21 96 -109 208 -203 256 -146 74 -343 66
-468 -19 -156 -108 -221 -325 -157 -525 33 -103 101 -176 201 -215 75 -30 248
-39 340 -17 34 8 62 12 62 9 0 -2 -9 -19 -19 -36 -11 -17 -31 -67 -46 -110
-35 -105 -37 -233 -6 -317 63 -167 190 -243 406 -243 173 0 283 46 359 151 89
123 94 323 11 487 l-31 63 60 -20 c44 -15 90 -20 166 -21 130 -1 187 21 255
96 134 149 136 463 4 629 -126 160 -389 185 -566 55 -67 -49 -114 -116 -139
-198 -13 -43 -23 -58 -36 -58 -23 0 -23 -1 8 180 29 173 72 326 114 411 17 32
30 61 30 64 0 3 -106 5 -235 5 -129 0 -235 -2 -235 -5z"/>
<path d="M3860 3812 c0 -4 6 -17 14 -28 44 -63 109 -290 140 -490 20 -128 20
-134 -3 -134 -14 0 -22 12 -30 46 -39 153 -172 266 -349 295 -135 22 -286 -24
-377 -116 -154 -153 -163 -467 -17 -613 99 -99 305 -138 475 -91 22 6 41 9 43
6 2 -2 -7 -24 -21 -48 -104 -188 -89 -423 35 -547 79 -78 177 -112 325 -112
148 0 246 34 325 112 124 124 139 359 35 546 l-24 43 22 -7 c129 -41 263 -46
352 -13 114 43 185 151 205 312 34 279 -92 482 -328 528 -123 24 -268 -19
-361 -106 -52 -49 -106 -141 -117 -201 -4 -24 -12 -34 -25 -34 -23 0 -23 6 -3
134 31 200 96 427 140 490 8 11 14 24 14 28 0 5 -106 8 -235 8 -129 0 -235 -3
-235 -8z"/>
<path d="M2140 2700 c55 -107 96 -254 130 -460 24 -152 24 -150 2 -150 -13 0
-23 12 -31 43 -54 182 -218 298 -421 297 -129 -1 -231 -42 -311 -127 -62 -65
-96 -141 -111 -244 -29 -203 57 -375 220 -441 50 -20 74 -23 197 -23 84 0 153
5 173 12 17 7 32 10 32 7 0 -3 -11 -24 -24 -47 -81 -140 -93 -333 -29 -464 73
-148 255 -224 468 -195 175 23 276 100 330 252 26 74 22 211 -9 304 -15 42
-34 88 -42 102 -9 13 -15 26 -13 28 2 3 42 -5 89 -16 168 -40 303 -9 389 89
98 110 125 345 60 517 -33 90 -92 154 -182 200 -67 35 -87 40 -161 44 -200 10
-374 -105 -423 -280 -13 -45 -21 -58 -36 -58 -18 0 -19 5 -12 58 23 194 83
429 136 535 l29 57 -235 0 -235 0 20 -40z"/>
<path d="M5629 2683 c53 -107 113 -343 136 -535 6 -54 5 -58 -13 -58 -15 0
-22 9 -27 33 -14 61 -59 138 -111 188 -94 88 -207 125 -351 116 -178 -11 -320
-122 -366 -287 -52 -182 -15 -356 96 -455 80 -72 137 -89 302 -90 85 0 153 5
173 12 37 14 39 9 14 -32 -84 -138 -98 -337 -33 -470 57 -115 153 -177 306
-197 271 -36 468 87 505 315 16 102 -10 248 -61 336 -11 18 -18 35 -16 37 2 2
41 -6 87 -17 213 -54 386 18 449 185 67 179 42 399 -60 527 -126 159 -390 185
-566 55 -67 -49 -114 -116 -139 -198 -13 -43 -23 -58 -36 -58 -23 0 -23 0 7
177 30 175 64 301 110 401 l34 72 -235 0 -234 0 29 -57z"/>
<path d="M7170 2398 c17 -31 50 -140 50 -169 0 -7 -7 -3 -16 9 -38 55 -153 79
-227 48 -95 -39 -134 -179 -77 -273 27 -46 74 -67 148 -67 51 -1 61 -4 55 -16
-3 -8 -8 -46 -10 -85 -3 -57 0 -76 16 -102 63 -101 269 -96 323 7 19 37 24
122 9 163 -9 23 -8 23 42 20 64 -5 113 19 142 68 30 51 28 171 -4 222 -52 84
-180 103 -261 38 -33 -26 -40 -29 -40 -14 0 16 35 121 54 166 8 16 -1 17 -108
17 l-115 0 19 -32z"/>
<path d="M7027 1546 c-93 -26 -166 -108 -208 -237 -21 -65 -24 -93 -24 -219 0
-157 9 -207 56 -300 32 -65 99 -133 151 -155 21 -8 66 -15 100 -15 193 0 312
177 312 465 0 162 -35 288 -105 376 -59 75 -184 113 -282 85z m135 -86 c64
-50 93 -192 85 -420 -6 -191 -27 -270 -84 -320 -31 -27 -42 -31 -72 -26 -45 7
-82 49 -105 119 -37 113 -44 361 -14 502 13 64 54 140 82 153 34 17 81 14 108
-8z"/>
<path d="M7550 1512 c0 -28 3 -30 51 -35 28 -4 57 -12 65 -18 12 -9 14 -83 14
-424 0 -363 2 -414 15 -419 9 -3 72 23 145 59 111 56 130 69 130 88 0 35 -6
37 -62 15 -28 -10 -57 -17 -65 -14 -11 5 -13 62 -11 345 2 226 7 344 14 351 6
6 34 13 63 17 49 6 52 7 49 32 l-3 26 -202 3 -203 2 0 -28z"/>
</g>
</svg>
