<?xml version="1.0" standalone="no"?>
<!DOCTYPE svg PUBLIC "-//W3C//DTD SVG 20010904//EN"
 "http://www.w3.org/TR/2001/REC-SVG-20010904/DTD/svg10.dtd">
<svg version="1.0" xmlns="http://www.w3.org/2000/svg"
 width="1200.000000pt" height="1500.000000pt" viewBox="0 0 1200.000000 1500.000000"
 preserveAspectRatio="xMidYMid meet">

<g transform="translate(0.000000,1500.000000) scale(0.100000,-0.100000)"
fill="#000000" stroke="none">
<path d="M470 14984 c-221 -47 -408 -236 -455 -459 -13 -61 -15 -945 -15
-7025 0 -6080 2 -6964 15 -7025 47 -225 235 -413 460 -460 106 -22 10944 -22
11050 0 225 47 413 235 460 460 13 61 15 945 15 7025 0 6080 -2 6964 -15 7025
-47 225 -235 413 -460 460 -103 22 -10955 21 -11055 -1z m11032 -115 c170 -36
317 -180 363 -354 13 -53 15 -801 15 -7015 0 -6214 -2 -6962 -15 -7015 -46
-174 -193 -318 -363 -354 -76 -16 -10928 -16 -11004 0 -170 36 -317 180 -363
354 -13 53 -15 801 -15 7015 0 6214 2 6962 15 7015 45 170 184 311 350 351 69
17 10937 20 11017 3z"/>
<path d="M428 13787 l-178 -92 0 -44 c0 -37 2 -42 18 -36 79 34 119 46 141 43
l26 -3 3 -491 c3 -578 11 -536 -107 -542 l-71 -4 0 -44 0 -44 290 0 290 0 0
44 0 44 -74 4 c-42 2 -80 9 -90 17 -14 12 -16 70 -16 621 l0 608 -22 6 c-13 3
-25 6 -28 5 -3 0 -85 -41 -182 -92z"/>
<path d="M1422 13870 c-103 -22 -214 -115 -271 -228 -43 -86 -78 -213 -92
-336 -28 -252 52 -566 178 -692 27 -26 77 -61 113 -78 58 -27 75 -31 155 -31
80 0 97 4 157 32 152 72 245 231 284 486 31 201 -1 447 -78 604 -90 184 -267
281 -446 243z m160 -125 c47 -32 90 -120 115 -235 25 -119 26 -538 0 -650 -23
-101 -73 -199 -117 -228 -43 -29 -112 -26 -158 7 -41 29 -86 124 -107 226 -35
171 -29 530 11 689 26 102 83 190 134 209 37 13 87 6 122 -18z"/>
<path d="M2715 12898 c-303 -370 -551 -677 -553 -684 -3 -13 1094 -1419 1108
-1419 10 0 1110 1463 1110 1477 0 9 -1097 1291 -1108 1296 -4 1 -255 -300
-557 -670z"/>
<path d="M8115 12898 c-303 -370 -551 -677 -553 -684 -3 -13 1094 -1419 1108
-1419 10 0 1110 1463 1110 1477 0 9 -1097 1291 -1108 1296 -4 1 -255 -300
-557 -670z"/>
<path d="M1045 12149 c-127 -155 -229 -285 -227 -291 5 -19 456 -588 463 -586
4 2 111 141 237 309 l230 306 -230 269 c-127 148 -233 270 -237 272 -4 1 -110
-124 -236 -279z"/>
<path d="M5410 11296 c-304 -371 -552 -677 -552 -681 0 -8 1105 -1424 1112
-1424 12 0 1112 1480 1107 1491 -8 21 -1098 1288 -1107 1288 -5 0 -257 -303
-560 -674z"/>
<path d="M2715 9708 c-303 -370 -551 -677 -553 -684 -3 -13 1094 -1419 1108
-1419 10 0 1110 1463 1110 1477 0 9 -1097 1291 -1108 1296 -4 1 -255 -300
-557 -670z"/>
<path d="M8115 9708 c-303 -370 -551 -677 -553 -684 -3 -13 1094 -1419 1108
-1419 10 0 1110 1463 1110 1477 0 9 -1097 1291 -1108 1296 -4 1 -255 -300
-557 -670z"/>
<path d="M2715 6518 c-303 -370 -551 -677 -553 -684 -3 -13 1094 -1419 1108
-1419 10 0 1110 1463 1110 1477 0 9 -1097 1291 -1108 1296 -4 1 -255 -300
-557 -670z"/>
<path d="M8115 6518 c-303 -370 -551 -677 -553 -684 -3 -13 1094 -1419 1108
-1419 10 0 1110 1463 1110 1477 0 9 -1097 1291 -1108 1296 -4 1 -255 -300
-557 -670z"/>
<path d="M5410 4916 c-304 -371 -552 -677 -552 -681 0 -8 1105 -1424 1112
-1424 12 0 1112 1480 1107 1491 -8 21 -1098 1288 -1107 1288 -5 0 -257 -303
-560 -674z"/>
<path d="M2715 3328 c-303 -370 -551 -677 -553 -684 -3 -13 1094 -1419 1108
-1419 10 0 1110 1463 1110 1477 0 9 -1097 1291 -1108 1296 -4 1 -255 -300
-557 -670z"/>
<path d="M8115 3328 c-303 -370 -551 -677 -553 -684 -3 -13 1094 -1419 1108
-1419 10 0 1110 1463 1110 1477 0 9 -1097 1291 -1108 1296 -4 1 -255 -300
-557 -670z"/>
<path d="M10405 3299 c-127 -155 -229 -285 -227 -291 5 -19 456 -588 463 -586
4 2 111 141 237 309 l230 306 -230 269 c-127 148 -233 270 -237 272 -4 1 -110
-124 -236 -279z"/>
<path d="M10283 2251 c-67 -25 -100 -48 -157 -112 -96 -106 -154 -287 -163
-505 -14 -333 90 -592 279 -695 60 -33 67 -34 168 -34 96 0 110 3 165 29 254
125 362 588 233 996 -49 155 -128 258 -236 308 -78 36 -212 42 -289 13z m216
-119 c66 -49 106 -176 123 -393 9 -108 9 -182 0 -290 -13 -178 -33 -266 -75
-344 -39 -71 -103 -112 -157 -100 -45 10 -100 62 -125 120 -50 112 -60 191
-60 465 0 284 10 357 66 469 34 67 44 78 96 97 47 17 88 9 132 -24z"/>
<path d="M11080 2201 l0 -38 73 -6 c117 -10 107 50 107 -653 l0 -604 28 0 c16
0 106 40 205 91 l177 90 0 40 c0 21 -3 39 -6 39 -3 0 -39 -12 -80 -26 -40 -15
-80 -24 -89 -21 -13 6 -15 66 -15 497 0 312 4 498 10 510 12 22 67 40 123 40
37 0 37 0 37 40 l0 40 -285 0 -285 0 0 -39z"/>
</g>
</svg>
