<?xml version="1.0" standalone="no"?>
<!DOCTYPE svg PUBLIC "-//W3C//DTD SVG 20010904//EN"
 "http://www.w3.org/TR/2001/REC-SVG-20010904/DTD/svg10.dtd">
<svg version="1.0" xmlns="http://www.w3.org/2000/svg"
 width="1638.000000pt" height="2047.000000pt" viewBox="0 0 1638.000000 2047.000000"
 preserveAspectRatio="xMidYMid meet">

<g transform="translate(0.000000,2047.000000) scale(0.100000,-0.100000)"
fill="#000000" stroke="none">
<path d="M680 20459 c-338 -56 -615 -337 -669 -679 -15 -91 -15 -18999 0
-19090 26 -164 109 -328 225 -445 101 -103 222 -173 379 -221 58 -18 319 -19
7530 -22 5243 -2 7491 1 7540 8 349 53 628 331 684 680 15 91 15 18999 0
19090 -55 347 -332 624 -679 679 -83 14 -14929 13 -15010 0z m15045 -172 c238
-70 409 -242 472 -477 17 -62 18 -528 18 -9575 0 -9047 -1 -9513 -18 -9575
-64 -237 -240 -413 -477 -477 -62 -17 -435 -18 -7530 -18 -7095 0 -7468 1
-7530 18 -234 63 -407 234 -477 472 -17 57 -18 514 -21 9525 -2 6742 0 9489 8
9548 39 300 261 528 555 571 34 5 3311 8 7500 7 7078 -1 7443 -2 7500 -19z"/>
<path d="M602 18881 l-252 -126 0 -57 c0 -32 2 -58 5 -58 2 0 39 14 81 30 42
17 96 33 120 37 41 5 44 4 54 -22 17 -44 9 -1323 -8 -1352 -18 -33 -64 -53
-120 -53 -27 0 -64 -3 -81 -6 -30 -6 -31 -8 -31 -60 l0 -54 400 0 400 0 0 55
c0 30 -3 55 -7 55 -151 10 -205 19 -223 35 -20 18 -20 29 -20 852 0 458 -1
833 -3 833 -1 0 -16 4 -32 9 -27 7 -59 -6 -283 -118z"/>
<path d="M1891 18975 c-217 -76 -351 -260 -429 -590 -23 -99 -26 -130 -26
-310 -1 -220 11 -301 66 -475 47 -147 101 -244 183 -326 109 -110 218 -154
381 -154 158 0 272 49 382 164 316 333 334 1138 34 1512 -60 74 -153 145 -229
175 -45 18 -83 23 -173 26 -103 3 -123 1 -189 -22z m264 -142 c66 -36 130
-149 164 -288 75 -307 61 -840 -28 -1076 -58 -154 -154 -223 -272 -198 -121
26 -201 169 -241 429 -17 113 -17 607 0 710 47 280 126 419 251 440 40 7 96
-1 126 -17z"/>
<path d="M3554 18485 c-294 -64 -535 -285 -633 -582 -50 -151 -65 -361 -36
-529 83 -485 463 -1161 1125 -1999 129 -164 531 -655 536 -655 4 0 368 444
516 630 668 841 1057 1528 1143 2017 18 108 19 292 1 393 -35 195 -121 363
-252 494 -151 152 -335 234 -540 244 -145 6 -234 -13 -364 -79 -193 -99 -381
-282 -471 -461 -16 -32 -31 -58 -34 -58 -3 0 -17 24 -31 53 -120 236 -395 467
-630 527 -90 23 -236 26 -330 5z"/>
<path d="M10765 18485 c-321 -71 -564 -309 -655 -640 -31 -112 -39 -354 -16
-480 97 -524 495 -1213 1227 -2120 320 -397 424 -524 430 -524 9 -1 479 576
634 778 515 669 829 1200 968 1636 60 188 72 261 71 440 -1 140 -4 173 -28
260 -45 171 -109 287 -225 409 -76 79 -152 133 -254 181 -104 50 -177 67 -307
72 -98 5 -128 2 -194 -16 -241 -66 -482 -263 -621 -506 l-42 -74 -52 87 c-143
240 -398 444 -623 497 -77 18 -232 18 -313 0z"/>
<path d="M1334 16936 c-139 -35 -243 -148 -274 -301 -52 -253 145 -618 680
-1258 8 -9 275 321 387 478 157 220 254 407 295 566 54 214 -24 404 -200 491
-57 28 -77 33 -142 33 -102 0 -170 -33 -265 -129 l-70 -71 -70 71 c-111 112
-221 151 -341 120z"/>
<path d="M7304 16320 c-193 -27 -357 -113 -496 -258 -254 -266 -319 -658 -182
-1095 149 -472 535 -1103 1127 -1842 189 -234 479 -586 482 -583 1 2 94 116
206 253 414 506 625 785 847 1117 408 611 622 1119 622 1478 0 147 -45 341
-107 463 -130 258 -375 432 -658 467 -151 19 -272 -6 -422 -85 -97 -51 -174
-109 -262 -196 -72 -72 -163 -190 -201 -262 -28 -52 -36 -57 -45 -26 -4 11
-34 60 -66 110 -64 94 -179 217 -269 286 -180 137 -388 200 -576 173z"/>
<path d="M3752 14139 c-186 -31 -388 -150 -512 -301 -68 -84 -145 -240 -177
-363 -36 -139 -38 -360 -4 -510 72 -317 221 -643 484 -1064 152 -242 452 -660
671 -931 199 -248 490 -600 496 -600 18 0 625 760 824 1033 616 843 894 1474
847 1917 -43 399 -283 702 -633 800 -176 50 -345 35 -513 -44 -195 -92 -409
-299 -496 -478 -13 -27 -25 -48 -28 -48 -4 0 -19 26 -36 57 -40 77 -149 217
-221 282 -227 208 -459 290 -702 250z"/>
<path d="M10795 14139 c-234 -46 -432 -177 -560 -368 -54 -83 -87 -154 -122
-270 -25 -80 -27 -99 -27 -281 -1 -173 2 -206 23 -290 129 -516 517 -1174
1182 -2001 199 -248 451 -554 459 -557 15 -6 526 626 755 932 553 741 858
1331 916 1771 34 260 -36 546 -179 735 -158 208 -414 340 -663 340 -277 0
-588 -207 -776 -516 l-52 -85 -17 33 c-64 125 -213 298 -333 389 -79 59 -193
119 -281 149 -75 25 -245 35 -325 19z"/>
<path d="M4590 9677 c-538 -660 -772 -969 -1007 -1332 -384 -595 -571 -1083
-549 -1428 19 -304 133 -536 341 -702 150 -119 315 -177 505 -177 132 -1 204
18 330 83 180 93 379 289 470 462 28 52 36 57 45 26 15 -47 135 -209 210 -284
189 -190 395 -289 595 -289 232 0 437 89 602 262 254 266 319 658 182 1095
-138 438 -491 1029 -1011 1695 -124 160 -580 719 -591 725 -4 3 -59 -59 -122
-136z"/>
<path d="M11529 9548 c-390 -476 -617 -774 -827 -1089 -345 -517 -541 -932
-608 -1287 -23 -121 -15 -364 15 -477 103 -386 430 -653 806 -658 58 -1 123 4
155 12 249 63 508 274 646 526 l37 67 31 -59 c51 -94 95 -152 189 -250 136
-141 292 -239 447 -280 91 -24 250 -21 354 6 454 119 723 579 641 1091 -82
503 -478 1201 -1185 2085 -122 152 -447 552 -470 578 -4 5 -108 -115 -231
-265z"/>
<path d="M8085 7468 c-548 -673 -795 -1003 -1033 -1383 -433 -694 -574 -1185
-457 -1590 111 -383 434 -635 812 -635 98 0 171 16 274 59 186 78 394 271 515
479 l37 63 31 -58 c47 -88 92 -149 170 -230 128 -135 251 -220 399 -276 114
-42 271 -49 400 -18 317 75 560 319 641 642 80 322 19 643 -214 1114 -243 492
-570 961 -1249 1790 -94 116 -175 211 -179 212 -4 1 -70 -75 -147 -169z"/>
<path d="M4488 5198 c-287 -351 -377 -465 -557 -707 -625 -839 -927 -1494
-897 -1944 19 -271 137 -518 324 -673 76 -63 235 -144 332 -170 102 -28 285
-25 380 4 133 42 265 122 389 238 70 65 178 203 219 281 15 29 29 53 33 53 3
0 15 -21 28 -47 33 -68 104 -165 179 -245 180 -190 417 -308 619 -308 239 1
506 134 652 326 148 196 219 462 191 721 -54 505 -434 1196 -1164 2118 -154
196 -500 615 -506 615 -4 0 -104 -118 -222 -262z"/>
<path d="M11600 5283 c-626 -764 -931 -1187 -1185 -1645 -155 -279 -270 -565
-314 -785 -28 -134 -28 -331 -2 -458 78 -375 343 -640 705 -704 182 -33 373
15 557 139 103 70 265 241 333 352 l59 97 51 -85 c137 -225 356 -409 572 -480
79 -26 103 -29 209 -28 176 1 298 38 450 139 234 155 375 417 392 730 7 132
-7 248 -48 403 -123 468 -507 1116 -1107 1872 -197 248 -513 630 -520 630 -4
0 -72 -80 -152 -177z"/>
<path d="M14470 4832 c-25 -31 -85 -106 -134 -167 -248 -308 -413 -573 -476
-765 -33 -100 -38 -231 -11 -316 68 -221 298 -326 490 -224 39 21 85 58 124
100 l61 67 38 -49 c49 -61 117 -112 188 -139 69 -26 172 -23 243 9 111 49 196
169 219 308 32 193 -104 490 -406 884 -106 139 -279 350 -286 349 -3 0 -25
-26 -50 -57z"/>
<path d="M14090 3034 c-83 -18 -174 -63 -234 -115 -184 -162 -301 -526 -283
-884 27 -537 269 -874 627 -875 155 0 270 48 381 159 111 112 183 264 231 484
28 133 31 414 6 552 -76 408 -236 623 -504 680 -84 18 -139 18 -224 -1z m173
-145 c49 -13 106 -65 140 -126 33 -62 71 -192 88 -308 18 -119 19 -557 1 -680
-47 -325 -145 -474 -304 -463 -46 3 -66 11 -95 35 -88 70 -143 205 -175 428
-17 123 -17 551 1 675 48 335 168 488 344 439z"/>
<path d="M15100 2950 l0 -60 58 -1 c94 -1 154 -14 174 -39 17 -21 18 -65 18
-851 l0 -828 33 -6 c29 -6 67 10 285 119 l252 126 0 55 c0 30 -4 55 -10 55 -5
0 -43 -13 -85 -30 -41 -16 -92 -33 -114 -36 -33 -5 -41 -3 -50 15 -8 15 -11
208 -9 683 3 718 1 692 57 718 15 7 63 15 109 18 l82 5 0 58 0 59 -400 0 -400
0 0 -60z"/>
</g>
</svg>
