<?xml version="1.0" standalone="no"?>
<!DOCTYPE svg PUBLIC "-//W3C//DTD SVG 20010904//EN"
 "http://www.w3.org/TR/2001/REC-SVG-20010904/DTD/svg10.dtd">
<svg version="1.0" xmlns="http://www.w3.org/2000/svg"
 width="1638.000000pt" height="2047.000000pt" viewBox="0 0 1638.000000 2047.000000"
 preserveAspectRatio="xMidYMid meet">

<g transform="translate(0.000000,2047.000000) scale(0.100000,-0.100000)"
fill="#000000" stroke="none">
<path d="M680 20459 c-338 -56 -615 -337 -669 -679 -15 -91 -15 -18999 0
-19090 26 -164 109 -328 225 -445 101 -103 222 -173 379 -221 58 -18 319 -19
7530 -22 5243 -2 7491 1 7540 8 349 53 628 331 684 680 15 91 15 18999 0
19090 -55 347 -332 624 -679 679 -83 14 -14929 13 -15010 0z m15045 -172 c238
-70 409 -242 472 -477 17 -62 18 -528 18 -9575 0 -9047 -1 -9513 -18 -9575
-64 -237 -240 -413 -477 -477 -62 -17 -435 -18 -7530 -18 -7095 0 -7468 1
-7530 18 -234 63 -407 234 -477 472 -17 57 -18 514 -21 9525 -2 6742 0 9489 8
9548 39 300 261 528 555 571 34 5 3311 8 7500 7 7078 -1 7443 -2 7500 -19z"/>
<path d="M603 18882 l-253 -127 0 -57 c0 -32 3 -58 6 -58 3 0 49 16 101 36
109 40 144 41 154 4 13 -46 9 -1270 -4 -1320 -16 -61 -54 -80 -159 -80 l-78 0
0 -65 0 -65 398 2 397 3 0 60 0 60 -104 6 c-93 5 -106 8 -122 28 -18 22 -19
59 -19 852 0 455 -3 830 -7 832 -38 21 -65 12 -310 -111z"/>
<path d="M1992 18999 c-233 -30 -395 -187 -493 -476 -111 -326 -87 -762 60
-1068 116 -243 327 -367 573 -335 281 35 465 263 544 675 24 123 25 405 1 531
-85 463 -345 719 -685 673z m183 -183 c104 -79 163 -263 185 -576 23 -317 -17
-676 -91 -821 -28 -55 -88 -119 -126 -136 -47 -19 -127 -16 -172 7 -71 36
-115 105 -155 242 -41 144 -51 244 -51 518 0 276 11 389 51 528 30 103 54 151
102 204 49 55 84 69 158 65 49 -2 69 -8 99 -31z"/>
<path d="M4375 18508 c-118 -184 -325 -444 -800 -1003 -215 -253 -335 -408
-430 -554 -135 -208 -227 -427 -261 -621 -22 -129 -14 -405 15 -533 68 -296
223 -488 463 -575 65 -24 87 -26 208 -26 150 -1 211 13 313 67 117 61 214 202
257 372 12 44 26 148 32 230 9 123 14 154 29 170 18 18 20 19 36 2 16 -16 18
-38 16 -195 -2 -201 -24 -397 -59 -522 -15 -53 -65 -168 -133 -305 -61 -121
-119 -241 -130 -267 l-20 -48 510 0 c280 0 509 2 509 4 0 15 -77 178 -159 340
-139 273 -168 396 -178 761 -5 192 -4 212 12 228 39 40 65 -8 65 -123 0 -179
41 -378 98 -484 36 -66 108 -138 168 -169 101 -51 157 -62 324 -62 149 0 159
2 250 33 352 122 550 445 550 897 0 311 -126 613 -405 970 -98 126 -188 230
-460 530 -363 400 -545 621 -696 842 -39 57 -73 103 -77 103 -4 0 -25 -28 -47
-62z"/>
<path d="M11705 18508 c-118 -184 -325 -444 -800 -1003 -215 -253 -335 -408
-430 -554 -135 -208 -227 -427 -261 -621 -22 -128 -14 -404 15 -533 68 -295
223 -488 463 -575 65 -24 87 -26 208 -26 150 -1 211 13 313 67 117 61 214 202
258 372 11 44 25 148 31 230 9 122 15 154 30 170 17 18 19 18 35 2 24 -24 28
-117 14 -324 -21 -317 -51 -428 -182 -681 -50 -95 -105 -209 -124 -253 l-33
-79 509 0 c280 0 509 2 509 4 0 15 -77 178 -159 340 -139 273 -168 396 -178
761 -5 192 -4 212 12 228 39 40 65 -8 65 -123 0 -179 41 -378 98 -484 36 -66
108 -138 168 -169 101 -51 157 -62 324 -62 149 0 159 2 250 33 352 122 550
445 550 897 0 324 -135 634 -443 1018 -52 65 -188 222 -303 349 -339 375 -402
447 -505 570 -112 134 -252 318 -328 431 -28 42 -55 77 -59 77 -4 0 -25 -28
-47 -62z"/>
<path d="M1661 16900 c-35 -50 -111 -147 -170 -216 -321 -381 -379 -474 -403
-643 -20 -144 17 -291 96 -379 110 -121 330 -114 415 15 17 26 31 44 31 42 0
-24 -39 -126 -75 -195 -24 -47 -48 -98 -54 -114 l-10 -30 239 0 239 0 -14 33
c-7 17 -36 79 -64 136 -58 119 -65 153 -21 99 39 -47 101 -70 187 -71 85 -1
138 14 199 56 91 63 139 162 151 307 7 92 -12 175 -62 275 -47 94 -110 175
-281 366 -158 175 -241 277 -293 357 -18 28 -36 52 -40 52 -3 0 -35 -41 -70
-90z"/>
<path d="M8030 16317 c-138 -207 -353 -478 -670 -847 -419 -488 -562 -683
-680 -925 -153 -316 -188 -633 -105 -962 102 -404 411 -624 783 -559 116 20
206 61 273 123 131 121 193 289 208 563 7 127 17 160 47 160 26 0 34 -41 34
-183 0 -226 -26 -438 -71 -578 -11 -35 -74 -172 -139 -304 -65 -132 -122 -250
-125 -262 l-6 -23 510 0 510 0 -30 73 c-16 39 -70 149 -119 244 -136 259 -169
381 -190 683 -18 266 -11 340 33 348 27 5 35 -31 46 -203 16 -253 69 -414 169
-514 97 -97 208 -133 412 -135 159 0 219 13 355 79 263 127 415 381 444 738
25 320 -53 584 -268 903 -132 197 -238 323 -680 810 -266 293 -491 571 -630
777 -28 42 -53 77 -54 77 -1 -1 -27 -38 -57 -83z"/>
<path d="M4374 14153 c-194 -277 -339 -462 -611 -780 -476 -556 -610 -734
-736 -981 -111 -216 -157 -401 -157 -631 0 -491 200 -825 541 -906 145 -34
355 -11 471 52 175 95 274 309 294 633 7 124 15 150 43 150 42 0 49 -80 31
-349 -21 -305 -58 -439 -190 -681 -63 -114 -140 -284 -140 -307 0 -11 92 -13
506 -13 l505 0 -7 23 c-18 57 -81 191 -143 306 -37 69 -80 157 -95 195 -61
154 -96 388 -96 649 0 142 8 177 39 177 28 0 41 -43 41 -133 0 -319 97 -562
258 -650 125 -68 363 -89 528 -47 331 85 546 351 593 735 52 424 -80 772 -472
1245 -75 90 -113 133 -418 470 -350 388 -540 621 -684 838 -26 39 -49 72 -51
72 -2 0 -24 -30 -50 -67z"/>
<path d="M11705 14154 c-196 -279 -340 -463 -612 -781 -493 -575 -624 -752
-748 -1008 -108 -221 -145 -377 -145 -605 0 -428 145 -727 416 -859 89 -43
172 -61 290 -61 264 0 436 108 532 335 30 73 60 231 68 365 7 124 15 150 43
150 37 0 44 -49 37 -228 -16 -386 -52 -538 -191 -793 -67 -122 -145 -292 -145
-316 0 -11 92 -13 506 -13 l505 0 -7 23 c-18 57 -81 191 -143 306 -37 69 -80
157 -95 195 -61 154 -96 388 -96 649 0 142 8 177 39 177 28 0 41 -43 41 -133
0 -319 97 -562 258 -650 125 -68 363 -89 528 -47 208 53 378 184 482 370 72
130 122 345 122 530 0 396 -174 740 -630 1250 -42 47 -160 177 -262 290 -352
389 -573 662 -729 899 l-15 25 -49 -70z"/>
<path d="M3941 9768 c16 -40 70 -150 119 -245 135 -258 169 -379 190 -678 19
-262 11 -345 -33 -353 -26 -5 -34 29 -46 188 -19 252 -73 402 -184 514 -169
168 -462 203 -707 84 -68 -33 -101 -57 -167 -123 -69 -70 -89 -99 -132 -186
-79 -164 -111 -322 -111 -548 0 -268 72 -504 234 -771 117 -191 249 -360 625
-800 319 -374 496 -599 640 -813 l52 -78 98 140 c176 249 311 411 710 851 475
524 638 747 749 1030 112 283 106 659 -13 918 -139 300 -432 472 -763 448
-174 -13 -278 -54 -360 -139 -111 -118 -172 -322 -172 -574 0 -89 -11 -130
-36 -140 -35 -13 -44 23 -44 178 0 228 26 440 71 580 11 35 74 172 139 304 65
132 122 250 125 263 l6 22 -510 0 -510 0 30 -72z"/>
<path d="M11271 9768 c16 -40 70 -150 119 -245 135 -258 169 -379 190 -678 19
-262 11 -345 -33 -353 -26 -5 -34 29 -46 188 -19 252 -73 402 -184 514 -169
168 -462 203 -707 84 -68 -33 -101 -57 -167 -123 -69 -70 -89 -99 -132 -186
-79 -164 -111 -322 -111 -548 0 -268 72 -504 234 -771 116 -190 248 -359 620
-795 336 -393 490 -589 638 -808 l59 -88 98 140 c176 249 311 411 710 851 475
524 638 747 749 1030 112 283 106 659 -13 918 -139 300 -432 472 -763 448
-175 -13 -278 -54 -361 -141 -104 -110 -157 -278 -170 -541 -7 -141 -16 -174
-47 -174 -26 0 -34 40 -34 177 0 232 28 456 75 598 9 28 70 158 135 290 65
132 122 250 125 263 l6 22 -510 0 -510 0 30 -72z"/>
<path d="M7580 7656 c0 -15 77 -178 159 -340 139 -273 168 -396 178 -761 5
-192 4 -212 -12 -228 -39 -39 -65 8 -65 118 0 92 -22 245 -46 325 -44 149
-146 279 -264 337 -129 62 -311 80 -454 43 -272 -69 -449 -282 -518 -624 -28
-137 -30 -413 -4 -531 79 -360 247 -629 795 -1270 355 -415 481 -573 624 -779
112 -161 115 -165 126 -145 6 8 51 73 102 145 162 228 318 414 690 824 510
562 677 798 773 1094 57 172 74 396 46 582 -45 299 -202 532 -435 644 -110 53
-181 70 -315 77 -212 10 -362 -37 -459 -143 -100 -110 -145 -250 -162 -514 -9
-139 -14 -168 -30 -185 -18 -18 -20 -19 -36 -2 -16 16 -18 38 -16 195 2 201
24 397 59 522 15 53 65 168 133 305 61 121 119 241 130 268 l20 47 -510 0
c-280 0 -509 -2 -509 -4z"/>
<path d="M3920 5477 c0 -24 78 -194 145 -316 139 -255 175 -407 191 -793 7
-179 0 -228 -37 -228 -28 0 -36 26 -43 150 -25 401 -155 612 -422 680 -97 25
-259 27 -348 4 -341 -88 -536 -415 -536 -904 0 -228 37 -384 145 -605 125
-259 252 -429 775 -1040 240 -281 417 -506 563 -717 38 -54 70 -98 72 -98 2 0
14 16 26 37 119 192 343 468 708 873 391 433 438 488 560 652 283 384 383 717
326 1091 -47 314 -196 534 -440 652 -117 57 -204 75 -353 75 -261 0 -412 -80
-497 -265 -54 -116 -85 -282 -85 -452 0 -90 -13 -133 -41 -133 -31 0 -39 35
-39 177 0 261 35 496 96 649 15 38 60 130 100 204 61 114 144 295 144 314 0 3
-227 6 -505 6 -413 0 -505 -2 -505 -13z"/>
<path d="M11250 5477 c0 -24 78 -194 144 -315 139 -255 177 -410 192 -789 8
-186 0 -233 -37 -233 -29 0 -36 30 -48 190 -12 162 -38 275 -82 364 -102 205
-261 296 -517 296 -117 0 -196 -17 -287 -60 -268 -129 -415 -434 -415 -860 0
-228 37 -384 145 -605 128 -262 251 -428 775 -1040 240 -281 417 -506 563
-717 38 -54 70 -98 72 -98 2 0 14 16 26 37 119 192 343 468 708 873 391 433
438 488 560 652 283 384 383 717 326 1091 -47 314 -196 534 -440 652 -117 57
-204 75 -353 75 -261 0 -412 -80 -497 -265 -54 -116 -85 -282 -85 -452 0 -90
-13 -133 -41 -133 -31 0 -39 35 -39 177 0 261 35 495 96 649 15 38 58 126 95
195 62 115 125 249 143 307 l7 22 -505 0 c-414 0 -506 -2 -506 -13z"/>
<path d="M14270 4879 c0 -6 26 -66 59 -133 32 -66 62 -137 66 -156 l7 -35 -26
37 c-81 115 -278 131 -394 32 -118 -101 -157 -341 -85 -526 40 -101 115 -212
260 -383 162 -192 231 -278 288 -360 27 -38 51 -74 55 -78 4 -4 31 27 61 70
63 91 119 159 284 343 277 309 337 417 336 604 0 254 -146 410 -369 394 -82
-6 -142 -35 -178 -86 -38 -55 -24 -12 47 139 32 70 59 132 59 138 0 8 -67 11
-235 11 -168 0 -235 -3 -235 -11z"/>
<path d="M14084 3035 c-294 -64 -492 -399 -511 -865 -15 -368 79 -674 261
-855 112 -111 216 -155 369 -155 315 0 519 220 614 661 27 128 25 417 -5 564
-45 226 -116 387 -220 496 -130 138 -318 195 -508 154z m231 -173 c80 -55 132
-168 167 -361 29 -159 32 -578 5 -749 -47 -299 -139 -441 -285 -442 -140 0
-233 148 -279 442 -24 159 -24 558 0 715 47 304 148 445 307 427 26 -3 62 -17
85 -32z"/>
<path d="M15100 2950 l0 -60 48 0 c26 0 74 -4 107 -10 104 -17 95 68 95 -880
0 -909 -5 -841 58 -840 15 1 135 56 267 123 l240 122 3 63 3 62 -53 -21 c-108
-44 -187 -64 -200 -51 -19 19 -24 1293 -6 1347 20 58 49 74 151 81 l87 7 0 58
0 59 -400 0 -400 0 0 -60z"/>
</g>
</svg>
